<svg version="1.2" xmlns="http://www.w3.org/2000/svg" viewBox="0 0 512 512" width="512" height="512">
	<title>heart-regular-svg</title>
	<style>
		.s0 { fill: #ff0000 } 
		.s1 { fill: #000000 } 
	</style>
	<path id="Shape 1" class="s0" d="m102 116h329v152h-329z"/>
	<path id="Shape 2" class="s0" d="m86 80h139v74h-139z"/>
	<path id="Shape 3" class="s0" d="m298 78h138v84h-138z"/>
	<path id="Shape 4" class="s0" d="m405 113h59v177h-59z"/>
	<path id="Shape 5" class="s0" d="m45 110h82v160h-82z"/>
	<path id="Shape 6" class="s0" d="m215 256h93v176h-93z"/>
	<path id="Shape 7" class="s0" d="m293 239h129v82h-129z"/>
	<path id="Shape 8" class="s0" d="m285 256h46v132h-46z"/>
	<path id="Shape 9" class="s0" d="m283 298h109v69h-109z"/>
	<path id="Shape 10" class="s0" d="m190 277h105v123h-105z"/>
	<path id="Shape 11" class="s0" d="m156 240h57v64h-57z"/>
	<path id="Shape 12" class="s0" d="m155 239h101v118h-101z"/>
	<path id="Shape 13" class="s0" d="m178 326h26v51h-26z"/>
	<path id="Shape 14" class="s0" d="m125 233h62v102h-62z"/>
	<path id="Shape 15" class="s0" d="m143 303h43v47h-43z"/>
	<path id="Shape 16" class="s0" d="m161 327h52v50h-52z"/>
	<path id="Shape 17" class="s0" d="m85 242h89v75h-89z"/>
	<path id="Shape 18" class="s0" d="m69 249h40v39h-40z"/>
	<path id="Layer" fill-rule="evenodd" class="s1" d="m225.8 468.2l-2.5-2.3-175.2-162.7c-30.7-28.5-48.1-68.5-48.1-110.4v-3.3c0-70.4 50-130.8 119.2-144 39.4-7.6 79.7 1.5 111.8 24.1 9 6.4 17.4 13.8 25 22.3 4.2-4.8 8.7-9.2 13.5-13.3 3.7-3.2 7.5-6.2 11.5-9 32.1-22.6 72.4-31.7 111.8-24.2 69.2 13.2 119.2 73.7 119.2 144.1v3.3c0 41.9-17.4 81.9-48.1 110.4l-175.2 162.7-2.5 2.3c-8.2 7.6-19 11.9-30.2 11.9-11.2 0-22-4.2-30.2-11.9zm13.3-323.2c-0.4-0.3-0.7-0.7-1-1.1l-17.8-20-0.1-0.1c-23.1-25.9-58-37.7-92-31.2-46.6 8.9-80.2 49.5-80.2 96.9v3.3c0 28.5 11.9 55.8 32.8 75.2l175.2 162.7 175.2-162.7c20.9-19.4 32.8-46.7 32.8-75.2v-3.3c0-47.3-33.6-88-80.1-96.9-34-6.5-69 5.4-92 31.2 0 0 0 0-0.1 0.1-0.1 0.1 0 0-0.1 0.1l-17.8 20c-0.3 0.4-0.7 0.7-1 1.1-4.5 4.5-10.6 7-16.9 7-6.3 0-12.4-2.5-16.9-7z"/>
</svg>